<?xml version="1.0" standalone="no"?>
<!DOCTYPE svg PUBLIC "-//W3C//DTD SVG 20010904//EN"
 "http://www.w3.org/TR/2001/REC-SVG-20010904/DTD/svg10.dtd">
<svg version="1.0" xmlns="http://www.w3.org/2000/svg"
 width="874.000000pt" height="1143.000000pt" viewBox="0 0 874.000000 1143.000000"
 preserveAspectRatio="xMidYMid meet">

<g transform="translate(0.000000,1143.000000) scale(0.100000,-0.100000)"
fill="#000000" stroke="none">
<path d="M4290 11374 c-47 -13 -110 -31 -140 -40 -128 -36 -242 -64 -343 -83
-303 -57 -527 -178 -715 -385 -125 -138 -178 -271 -208 -523 -17 -146 -17
-156 0 -235 10 -45 26 -105 37 -133 20 -54 105 -191 132 -214 49 -40 155 -224
187 -324 7 -22 19 -51 27 -65 l15 -27 -6 25 c-4 14 -8 32 -11 40 -2 8 -17 58
-34 110 -17 52 -36 109 -41 126 -18 56 -13 101 16 123 15 12 39 21 55 21 15 0
61 7 101 15 40 9 100 20 133 24 33 5 73 14 89 20 24 10 26 14 16 26 -11 13
-10 14 2 10 30 -12 12 39 -21 59 -31 18 -33 18 -119 -3 -173 -43 -265 -70
-282 -86 -14 -13 -19 -13 -28 -2 -7 8 -9 17 -5 20 3 4 1 12 -4 19 -16 20 -20
94 -6 107 7 6 13 28 13 47 0 21 4 33 10 29 9 -6 14 10 13 43 -1 6 5 12 13 12
8 0 13 -5 12 -12 -2 -6 6 -13 17 -15 11 -1 14 0 8 3 -7 3 -13 12 -13 20 0 8
-6 17 -14 20 -8 3 -17 12 -20 21 -5 11 3 10 31 -7 40 -24 109 -29 141 -11 13
8 5 10 -35 11 -28 0 -54 4 -57 8 -3 5 28 7 69 6 60 -2 82 2 122 22 45 22 46
23 18 24 -45 1 -60 13 -46 38 6 12 19 26 29 31 15 9 15 12 2 20 -8 6 -19 6
-25 1 -5 -4 -28 -11 -50 -15 -30 -5 -36 -4 -25 4 11 8 12 11 2 11 -7 0 -11 4
-7 9 3 6 -3 14 -12 20 -10 5 -15 13 -10 17 9 10 115 -14 119 -27 2 -7 25 -7
68 1 82 15 110 29 57 30 -24 0 -36 4 -32 10 4 6 15 8 25 5 10 -3 21 -1 25 5 3
5 17 10 31 10 14 0 22 4 19 10 -3 6 -24 10 -46 10 -21 0 -39 4 -39 9 0 17 25
18 75 3 33 -10 102 -15 205 -17 101 -1 163 -6 178 -14 38 -20 103 -41 97 -31
-3 6 -13 10 -21 10 -31 0 -12 19 26 25 22 4 42 11 46 16 3 5 11 9 17 9 7 0 4
-7 -5 -14 -10 -7 -18 -18 -18 -24 0 -6 -6 -13 -12 -15 -9 -4 -8 -6 2 -6 26 -2
58 28 65 59 6 29 8 29 58 25 47 -3 50 -2 33 11 -28 20 -11 33 65 45 91 16 136
16 156 0 17 -12 16 -13 -4 -6 -31 9 -29 -8 5 -46 43 -49 100 -91 128 -94 28
-3 69 -35 45 -35 -8 0 -1 -10 15 -22 16 -12 35 -31 42 -40 7 -10 17 -16 22
-13 10 6 19 -18 22 -62 1 -18 6 -33 10 -33 4 0 8 -11 8 -25 0 -14 5 -25 10
-25 6 0 10 -5 10 -11 0 -5 -6 -7 -12 -3 -10 6 -10 4 -2 -7 6 -8 19 -54 29
-102 10 -49 24 -95 31 -102 8 -7 14 -18 14 -23 0 -5 8 -20 18 -33 18 -23 49
-172 57 -275 2 -27 9 -83 15 -124 5 -41 10 -97 11 -125 0 -27 1 -79 1 -113 1
-45 -3 -66 -13 -73 -11 -7 -11 -9 4 -9 19 0 23 -15 7 -25 -12 -8 -13 -45 -1
-45 5 0 12 -10 15 -22 6 -23 7 -23 19 -3 26 43 10 346 -34 647 -10 71 -16 141
-13 158 4 19 2 30 -5 30 -8 0 -9 11 -4 33 4 17 7 53 8 79 0 25 3 44 8 41 4 -2
10 3 13 11 3 9 11 16 16 16 5 0 28 20 51 45 24 25 51 45 62 45 28 0 69 -38 97
-90 22 -43 23 -55 23 -229 l0 -184 18 74 c25 104 19 289 -13 372 -27 72 -27
131 -1 227 12 41 21 97 21 125 0 96 -74 283 -163 413 -30 42 -66 100 -82 129
-93 173 -378 417 -519 444 -74 14 -122 10 -216 -17z m370 -90 c0 -2 -7 -4 -15
-4 -8 0 -15 4 -15 10 0 5 7 7 15 4 8 -4 15 -8 15 -10z m-247 -21 c-7 -2 -19
-2 -25 0 -7 3 -2 5 12 5 14 0 19 -2 13 -5z m334 -69 c-3 -3 -12 -4 -19 -1 -8
3 -5 6 6 6 11 1 17 -2 13 -5z m-17 -164 c16 -13 20 -20 10 -19 -16 0 -50 22
-50 33 0 11 14 6 40 -14z m105 -10 c3 -5 1 -10 -4 -10 -6 0 -11 5 -11 10 0 6
2 10 4 10 3 0 8 -4 11 -10z m-35 -90 c0 -5 -4 -10 -9 -10 -6 0 -13 5 -16 10
-3 6 1 10 9 10 9 0 16 -4 16 -10z m-70 -40 c0 -5 -2 -10 -4 -10 -3 0 -8 5 -11
10 -3 6 -1 10 4 10 6 0 11 -4 11 -10z m-4 -35 c10 -8 14 -15 8 -15 -5 0 -19 7
-30 15 -10 8 -14 15 -8 15 5 0 19 -7 30 -15z m-96 -10 c11 -13 10 -14 -4 -9
-9 3 -16 10 -16 15 0 13 6 11 20 -6z m-525 -115 c3 -5 1 -10 -4 -10 -6 0 -11
5 -11 10 0 6 2 10 4 10 3 0 8 -4 11 -10z m360 -28 c-3 -3 -11 0 -18 7 -9 10
-8 11 6 5 10 -3 15 -9 12 -12z m-130 -22 c3 -5 0 -10 -7 -10 -9 0 -9 -3 2 -10
12 -8 11 -10 -7 -10 -16 0 -20 5 -16 20 6 22 18 26 28 10z m-118 -20 c18 -14
21 -20 10 -20 -9 0 -19 5 -22 11 -4 6 -17 14 -29 19 -18 8 -18 9 -3 9 11 1 30
-8 44 -19z m-26 -48 c-13 -2 -31 3 -39 12 -14 14 -12 14 24 3 33 -10 35 -13
15 -15z m-301 -42 c0 -5 -2 -10 -4 -10 -3 0 -8 5 -11 10 -3 6 -1 10 4 10 6 0
11 -4 11 -10z m195 0 c3 -6 -1 -7 -9 -4 -18 7 -21 14 -7 14 6 0 13 -4 16 -10z
m-635 -71 c0 -5 -5 -9 -12 -9 -17 0 -48 31 -48 47 0 11 8 9 30 -7 17 -12 30
-26 30 -31z m1380 -3 c0 -8 4 -16 10 -18 5 -1 11 -14 12 -28 2 -17 -3 -25 -16
-28 -16 -3 -18 0 -12 22 4 15 2 35 -4 46 -7 14 -7 20 0 20 5 0 10 -6 10 -14z
m145 -6 c3 -5 1 -10 -4 -10 -6 0 -11 5 -11 10 0 6 2 10 4 10 3 0 8 -4 11 -10z
m-976 -31 c-20 -13 -39 -11 -36 4 3 15 41 27 46 14 2 -5 -3 -13 -10 -18z
m-454 0 c7 -7 1 -8 -20 -3 -46 11 -67 26 -25 19 19 -3 39 -10 45 -16z m560
-12 c0 -25 -26 -30 -47 -9 -9 9 -8 12 6 12 9 0 14 5 11 10 -3 6 2 10 12 10 12
0 18 -7 18 -23z m60 13 c-3 -5 -13 -10 -21 -10 -8 0 -12 5 -9 10 3 6 13 10 21
10 8 0 12 -4 9 -10z m446 -21 c11 -6 24 -20 29 -32 7 -17 9 -18 9 -4 1 19 16
23 27 6 10 -16 -17 -30 -46 -23 -25 5 -90 61 -90 76 0 8 35 -3 71 -23z m296
-15 c-8 -8 -37 20 -37 36 0 6 10 2 22 -10 12 -11 19 -23 15 -26z m-1377 16
c12 -8 9 -10 -12 -10 -16 0 -28 5 -28 10 0 13 20 13 40 0z m-242 -25 c-3 -3
-9 2 -12 12 -6 14 -5 15 5 6 7 -7 10 -15 7 -18z m800 -12 c-10 -2 -26 -2 -35
0 -10 3 -2 5 17 5 19 0 27 -2 18 -5z m-758 -13 c8 -5 11 -10 5 -10 -5 0 -17 5
-25 10 -8 5 -10 10 -5 10 6 0 17 -5 25 -10z m1386 -31 c19 -22 19 -22 -3 -10
-24 12 -39 31 -25 31 5 0 17 -10 28 -21z m-1256 1 c0 -5 -4 -10 -9 -10 -6 0
-13 5 -16 10 -3 6 1 10 9 10 9 0 16 -4 16 -10z m47 -6 c-3 -3 -12 -4 -19 -1
-8 3 -5 6 6 6 11 1 17 -2 13 -5z"/>
<path d="M4455 10459 c-11 -4 -46 -8 -77 -8 -32 -1 -58 -5 -58 -11 0 -18 138
-6 157 14 11 11 -2 14 -22 5z"/>
<path d="M4354 10189 c-3 -5 -16 -6 -29 -3 -29 7 -85 -15 -85 -34 0 -7 -5 -10
-10 -7 -6 4 -24 3 -41 0 -22 -5 -29 -11 -24 -22 4 -13 3 -14 -9 -4 -16 13 -26
11 -131 -25 -63 -22 -67 -26 -52 -57 6 -15 17 -25 24 -23 7 3 10 -1 7 -8 -4
-10 6 -13 42 -10 25 2 52 8 59 14 7 5 37 19 67 29 30 10 79 30 109 44 30 13
69 30 88 36 43 14 185 15 176 1 -3 -5 -2 -10 4 -10 5 0 17 -3 27 -7 12 -5 15
-3 9 6 -5 10 -2 11 14 6 25 -8 27 2 6 32 -8 12 -35 26 -62 32 -63 15 -182 21
-189 10z m-14 -40 c0 -11 -12 -11 -35 -3 -12 5 -14 9 -4 14 14 9 39 2 39 -11z
m-104 -58 c-3 -5 -15 -7 -26 -4 -28 7 -25 13 6 13 14 0 23 -4 20 -9z m-149
-17 c-3 -3 -12 -4 -19 -1 -8 3 -5 6 6 6 11 1 17 -2 13 -5z m-72 -24 c3 -5 1
-10 -4 -10 -6 0 -11 5 -11 10 0 6 2 10 4 10 3 0 8 -4 11 -10z"/>
<path d="M3932 10025 c0 -16 2 -22 5 -12 2 9 2 23 0 30 -3 6 -5 -1 -5 -18z"/>
<path d="M4300 9963 c-86 -10 -90 -13 -90 -44 0 -20 10 -40 29 -59 25 -26 32
-28 61 -20 39 11 59 36 60 74 0 23 3 27 18 21 97 -41 142 -49 142 -26 0 14
-181 58 -220 54z"/>
<path d="M4145 9892 c-29 -36 -16 -30 33 16 15 13 19 22 11 21 -8 0 -27 -17
-44 -37z"/>
<path d="M4423 9874 c-40 -17 -50 -33 -18 -26 14 2 28 8 31 13 3 5 14 9 25 9
10 0 19 5 19 10 0 13 -18 11 -57 -6z"/>
<path d="M3437 9726 c-27 -13 -59 -33 -71 -45 -12 -12 -27 -21 -33 -21 -12 0
-43 -60 -43 -84 0 -9 5 -16 10 -16 6 0 10 -7 10 -15 0 -21 13 -19 35 5 9 10
43 25 74 31 31 7 70 22 86 34 17 12 38 25 48 28 12 5 17 17 17 47 0 31 4 40
18 41 24 2 -37 16 -73 18 -16 0 -52 -10 -78 -23z m-7 -41 c0 -9 12 -28 26 -42
14 -14 22 -29 17 -34 -5 -5 -37 -11 -71 -14 -75 -7 -79 2 -26 63 37 44 54 52
54 27z m90 5 c0 -5 -4 -10 -9 -10 -6 0 -13 5 -16 10 -3 6 1 10 9 10 9 0 16 -4
16 -10z"/>
<path d="M5109 9386 l-36 -11 15 -35 c10 -23 16 -30 20 -20 2 8 10 22 17 30
10 13 28 52 22 49 -1 -1 -18 -6 -38 -13z"/>
<path d="M4029 9264 c-11 -14 -9 -15 16 -12 16 1 30 9 33 16 6 18 -33 15 -49
-4z"/>
<path d="M5101 9214 c0 -11 3 -14 6 -6 3 7 2 16 -1 19 -3 4 -6 -2 -5 -13z"/>
<path d="M5111 9159 c-1 -20 2 -39 6 -43 4 -4 8 -19 10 -34 11 -118 37 -238
57 -257 7 -7 19 -27 26 -45 15 -37 30 -23 24 24 -2 20 0 26 5 17 5 -8 14 -10
22 -6 9 6 11 4 6 -8 -3 -9 -3 -16 1 -14 5 1 24 -16 43 -38 18 -22 51 -56 72
-74 33 -30 38 -39 33 -64 -3 -16 -21 -46 -39 -66 -18 -20 -44 -59 -57 -86 -13
-28 -31 -61 -41 -75 -86 -128 -149 -227 -149 -233 0 -4 5 -7 10 -7 6 0 10 9
10 20 0 11 4 20 8 20 5 0 14 12 20 26 7 14 17 22 22 19 5 -3 7 0 4 8 -3 8 2
20 11 27 8 7 15 16 15 21 0 4 11 20 25 35 14 15 25 32 25 39 0 7 9 20 19 29
11 10 23 31 26 47 4 19 12 29 22 27 9 -2 18 4 20 12 4 13 3 13 -6 0 -6 -8 -11
-12 -11 -8 0 4 25 40 55 80 30 40 51 74 46 76 -5 2 2 14 15 27 13 13 24 33 24
44 0 10 14 31 31 45 30 26 30 26 6 26 -13 0 -35 -9 -49 -19 -29 -23 -89 -31
-95 -13 -3 6 1 12 9 12 25 -1 148 65 153 81 3 10 20 19 38 22 36 5 59 -1 52
-13 -3 -5 2 -13 12 -19 10 -5 18 -20 18 -33 0 -13 6 -23 15 -23 8 -1 14 -6 12
-13 -1 -7 3 -12 9 -12 6 0 9 -7 6 -15 -4 -8 -2 -17 3 -20 5 -3 8 -20 6 -36 -4
-37 33 -86 52 -67 9 9 5 23 -13 57 -13 25 -37 76 -53 113 -35 78 -63 100 -138
106 -57 5 -87 -3 -168 -45 -45 -24 -51 -25 -90 -12 -22 7 -44 12 -48 11 -5 -1
-7 1 -7 6 3 20 -2 25 -12 12 -9 -13 -10 -13 -6 0 2 8 -7 37 -20 63 -28 56 -81
196 -93 247 l-8 35 -1 -36z m109 -354 c7 -9 8 -15 2 -15 -5 0 -12 7 -16 15 -3
8 -4 15 -2 15 2 0 9 -7 16 -15z m234 -111 c9 -22 -3 -32 -14 -14 -12 19 -12
30 -1 30 5 0 12 -7 15 -16z"/>
<path d="M4266 8969 c-61 -9 -74 -14 -63 -26 4 -3 18 -1 32 5 14 7 41 12 60
12 19 0 35 5 35 10 0 6 -1 9 -2 9 -2 -1 -30 -5 -62 -10z"/>
<path d="M4862 8897 c-10 -12 -24 -50 -28 -76 -2 -8 -14 -26 -28 -40 -14 -14
-43 -45 -63 -67 -48 -52 -110 -95 -129 -87 -10 4 -14 -3 -14 -26 0 -19 -6 -34
-15 -37 -8 -4 -13 -10 -10 -15 9 -14 -37 -60 -56 -54 -13 4 -16 0 -14 -20 3
-25 -7 -38 -33 -41 -30 -5 -41 -14 -36 -29 4 -9 0 -15 -9 -15 -9 0 -51 -15
-94 -34 -116 -51 -308 -74 -308 -37 0 8 -6 16 -12 19 -27 8 -6 -33 40 -81 12
-13 28 -32 35 -43 7 -10 6 -5 -2 12 l-15 31 57 6 c69 8 186 44 267 83 36 18
93 61 145 109 47 45 100 94 119 110 78 69 171 179 171 204 0 6 6 14 13 18 21
14 39 59 33 81 -5 15 -2 21 11 24 16 3 16 4 1 10 -9 4 -21 1 -26 -5z"/>
<path d="M3898 8892 c-10 -2 -18 -8 -18 -14 0 -5 7 -7 16 -4 9 3 31 6 50 6 19
0 34 5 34 10 0 10 -41 11 -82 2z"/>
<path d="M3840 8864 l-25 -15 25 7 c28 7 35 12 29 18 -2 2 -15 -2 -29 -10z"/>
<path d="M5683 8695 c0 -8 4 -15 9 -15 4 0 8 4 8 9 0 6 -4 12 -8 15 -5 3 -9
-1 -9 -9z"/>
<path d="M5827 8570 c-3 -13 0 -17 9 -13 9 3 14 -3 14 -18 l1 -24 13 25 c16
28 14 36 -13 43 -13 3 -21 -1 -24 -13z"/>
<path d="M3800 8515 c36 -36 66 -65 67 -65 1 0 -1 8 -4 18 -10 26 -84 100
-106 106 -13 3 4 -20 43 -59z"/>
<path d="M5721 8523 c-10 -26 -10 -27 4 -9 8 11 15 23 15 28 0 15 -7 8 -19
-19z"/>
<path d="M5821 8524 c0 -11 3 -14 6 -6 3 7 2 16 -1 19 -3 4 -6 -2 -5 -13z"/>
<path d="M5940 8522 c0 -15 5 -19 20 -15 14 4 21 -1 25 -20 4 -14 4 -35 0 -46
-5 -18 -2 -21 22 -23 15 -1 38 -1 51 0 16 0 22 -4 20 -15 -2 -9 3 -17 10 -19
7 -1 8 0 2 3 -5 2 -8 9 -4 14 7 12 74 12 74 -1 0 -5 17 -12 38 -16 20 -4 40
-12 44 -18 5 -7 8 -4 8 7 0 28 17 20 30 -15 10 -25 14 -28 17 -15 3 9 8 17 13
17 5 0 14 -8 19 -17 6 -10 11 -13 11 -6 0 14 29 10 62 -8 13 -7 26 -12 30 -11
14 4 118 -50 118 -61 0 -9 2 -9 8 0 6 9 16 8 41 -5 19 -9 29 -18 22 -20 -6 -2
-18 1 -25 8 -10 8 -16 8 -21 0 -4 -6 -2 -9 3 -8 5 2 19 -8 30 -22 17 -20 23
-22 31 -11 7 11 16 11 47 3 37 -11 37 -11 7 -8 -22 2 -33 -2 -33 -11 0 -7 7
-13 16 -13 8 0 22 -7 30 -15 9 -8 32 -16 52 -16 56 -2 97 -14 95 -27 -3 -14
41 -27 56 -17 6 3 11 0 11 -7 0 -9 3 -9 10 2 7 11 10 11 10 2 0 -7 4 -10 10
-7 11 7 97 -30 117 -51 8 -8 17 -14 21 -15 26 -3 43 -11 89 -41 29 -19 49 -39
45 -43 -4 -5 -2 -6 3 -2 14 7 99 -69 91 -81 -3 -5 1 -9 10 -8 9 0 21 -8 28
-19 6 -11 17 -24 24 -28 7 -5 10 -12 7 -18 -4 -5 2 -6 11 -2 13 5 15 3 9 -8
-4 -8 -5 -11 0 -7 9 8 35 -15 35 -32 0 -6 11 -15 25 -22 13 -6 31 -26 40 -45
9 -18 20 -31 26 -28 30 19 -232 278 -373 368 -89 56 -437 224 -568 273 -19 7
-69 27 -110 44 -41 17 -163 64 -270 105 -107 40 -212 83 -232 95 -37 22 -38
22 -38 2z m138 -77 c12 -11 -8 -16 -42 -10 -48 9 -48 29 0 22 20 -3 39 -9 42
-12z m126 -47 c-3 -4 -11 -5 -19 -1 -21 7 -19 12 4 10 11 0 18 -5 15 -9z m537
-235 c13 -16 12 -17 -3 -4 -10 7 -18 15 -18 17 0 8 8 3 21 -13z"/>
<path d="M5953 8363 c-16 -32 -17 -53 -3 -53 11 0 23 41 18 64 -2 11 -7 8 -15
-11z"/>
<path d="M3960 8361 c0 -5 7 -12 16 -15 14 -5 15 -4 4 9 -14 17 -20 19 -20 6z"/>
<path d="M6495 8270 c-3 -5 1 -10 10 -10 9 0 13 5 10 10 -3 6 -8 10 -10 10 -2
0 -7 -4 -10 -10z"/>
<path d="M4068 8086 c-25 -39 -56 -91 -68 -116 -12 -25 -69 -115 -126 -200
-112 -168 -138 -223 -178 -373 -15 -55 -36 -117 -47 -140 -33 -63 -70 -167
-60 -167 5 0 11 13 14 29 3 16 13 36 22 45 9 9 14 20 11 25 -3 5 1 12 10 15
24 9 42 6 19 -4 -19 -8 -19 -9 4 -9 16 -1 21 -5 17 -16 -3 -8 -1 -15 4 -15 6
0 10 5 10 11 0 5 4 8 10 4 5 -3 18 0 28 6 15 9 26 9 51 -2 17 -8 31 -17 31
-21 0 -13 -38 -9 -43 5 -2 6 -8 8 -13 4 -12 -12 16 -27 51 -28 26 0 27 -2 10
-9 -11 -5 -14 -9 -7 -9 21 -1 53 19 47 30 -4 5 8 9 24 9 17 0 31 5 31 11 0 8
-13 10 -37 6 -24 -4 -51 0 -82 12 -25 11 -54 22 -63 25 -19 6 -25 46 -8 46 6
0 10 7 10 15 0 8 3 15 8 15 4 0 20 27 36 60 16 33 38 62 48 66 10 3 16 10 13
15 -4 5 5 5 20 -1 15 -6 46 -10 71 -10 24 0 44 -4 44 -10 0 -5 8 -10 19 -10
20 0 34 -32 21 -47 -4 -4 -13 -26 -20 -48 -7 -22 -24 -59 -38 -83 -18 -32 -22
-46 -13 -55 8 -8 11 -5 11 12 0 17 4 22 16 17 9 -3 12 -2 9 5 -8 12 20 74 46
100 18 18 19 18 36 -14 9 -17 19 -45 22 -60 4 -17 18 -35 36 -45 17 -9 33 -21
37 -27 4 -5 8 0 8 13 0 13 -18 53 -40 89 -22 37 -40 74 -40 83 0 9 -5 21 -12
28 -9 9 -6 12 15 12 18 0 27 -5 27 -16 0 -8 16 -40 36 -70 34 -51 38 -54 75
-51 27 2 36 0 29 -8 -5 -6 -5 -17 0 -25 5 -8 6 -18 3 -24 -3 -5 -1 -6 5 -2 7
4 12 17 12 30 0 13 9 31 20 41 11 10 20 21 20 24 0 4 -24 19 -54 34 -59 28
-87 61 -61 71 33 12 11 23 -57 30 -40 4 -75 11 -76 16 -2 6 -8 8 -12 5 -5 -3
-7 -12 -3 -20 3 -10 -1 -15 -12 -15 -13 0 -16 6 -11 25 6 24 5 25 -44 25 -27
0 -50 -5 -50 -10 0 -6 -8 -5 -19 2 -18 11 -18 12 6 25 14 7 28 11 32 9 4 -3
25 -7 46 -9 47 -6 75 -16 75 -27 0 -4 21 -5 46 -2 31 3 45 1 41 -5 -4 -6 3
-11 16 -11 12 -1 33 -3 47 -5 14 -2 31 -5 38 -6 6 0 12 -10 12 -21 0 -11 4
-20 10 -20 5 0 15 -12 23 -26 12 -23 15 -24 26 -10 12 14 10 19 -13 37 -32 25
-34 65 -6 111 15 24 17 35 8 46 -8 9 -8 16 -2 20 6 4 16 33 24 65 l14 58 -107
212 c-59 117 -115 226 -125 243 l-18 31 -46 -71z m112 -128 c0 -38 -5 -34 -13
10 -4 21 -3 31 3 27 6 -3 10 -20 10 -37z m30 -38 c0 -5 -5 -10 -11 -10 -5 0
-7 5 -4 10 3 6 8 10 11 10 2 0 4 -4 4 -10z m-130 -30 c0 -5 -4 -10 -10 -10 -5
0 -10 5 -10 10 0 6 5 10 10 10 6 0 10 -4 10 -10z m-3 -42 c-4 -13 51 -54 66
-50 14 4 7 -21 -10 -35 -10 -8 -12 -11 -5 -8 10 5 13 2 10 -11 -4 -23 -38 -32
-38 -10 0 10 -9 16 -25 16 -32 0 -31 -3 6 -41 36 -37 54 -86 38 -105 -6 -7
-17 -10 -25 -7 -9 3 -14 0 -12 -8 2 -10 -11 -15 -47 -17 -27 -2 -54 -7 -59
-13 -15 -14 -39 -11 -33 4 4 10 -2 13 -18 9 -13 -2 -30 1 -37 7 -7 6 -24 20
-38 30 -14 11 -22 22 -19 26 5 5 58 11 121 14 18 1 43 63 34 86 -4 11 2 15 19
15 19 0 28 9 40 37 11 27 12 38 4 44 -6 4 -8 12 -5 18 10 15 39 14 33 -1z
m-80 -80 c-3 -8 -6 -5 -6 6 -1 11 2 17 5 13 3 -3 4 -12 1 -19z m168 -84 c-9
-9 -19 -14 -22 -10 -4 3 -1 12 5 18 7 7 12 28 13 48 l1 35 10 -37 c8 -31 7
-41 -7 -54z m-235 56 c0 -5 -2 -10 -4 -10 -3 0 -8 5 -11 10 -3 6 -1 10 4 10 6
0 11 -4 11 -10z m284 -97 c-11 -48 -36 -138 -40 -142 -8 -8 -44 33 -44 49 0 9
9 25 20 35 11 10 20 29 20 42 0 14 6 23 15 23 8 0 15 5 15 10 0 6 5 10 10 10
6 0 8 -11 4 -27z m-384 -37 c0 -2 -8 -10 -17 -17 -16 -13 -17 -12 -4 4 13 16
21 21 21 13z m277 -84 c19 -11 16 -14 -36 -25 -25 -6 -61 11 -61 28 0 13 72
10 97 -3z m-252 -12 c3 -5 1 -10 -4 -10 -6 0 -11 5 -11 10 0 6 2 10 4 10 3 0
8 -4 11 -10z m55 -15 c0 -8 -4 -15 -10 -15 -5 0 -10 7 -10 15 0 8 5 15 10 15
6 0 10 -7 10 -15z m-50 -15 c0 -5 -5 -10 -11 -10 -5 0 -7 5 -4 10 3 6 8 10 11
10 2 0 4 -4 4 -10z m20 -30 c0 -5 -5 -10 -11 -10 -5 0 -7 5 -4 10 3 6 8 10 11
10 2 0 4 -4 4 -10z m-75 -30 c-11 -5 -27 -9 -35 -9 -13 -1 -13 0 0 9 8 5 24 9
35 9 l20 0 -20 -9z m-60 -10 c3 -5 1 -10 -4 -10 -6 0 -11 5 -11 10 0 6 2 10 4
10 3 0 8 -4 11 -10z m24 -68 c-8 -15 -18 -30 -24 -34 -16 -12 -27 -9 -22 5 2
6 10 11 16 10 6 -2 11 4 11 13 0 8 -4 12 -10 9 -5 -3 -18 -1 -27 5 -16 10 -15
10 4 5 14 -4 28 0 40 12 23 24 29 9 12 -25z m-55 -44 c7 -34 3 -44 -13 -33
-13 7 -15 65 -2 65 5 0 11 -14 15 -32z m-38 -53 c-3 -8 -1 -15 5 -15 5 0 18
-8 29 -18 19 -17 19 -18 0 -18 -11 0 -20 6 -20 13 0 7 -7 13 -15 13 -8 0 -15
2 -15 4 0 10 13 36 17 36 3 0 3 -7 -1 -15z"/>
<path d="M4000 7686 c0 -9 5 -16 10 -16 6 0 10 4 10 9 0 6 -4 13 -10 16 -5 3
-10 -1 -10 -9z"/>
<path d="M5091 8110 c-12 -22 -18 -40 -13 -40 10 0 46 69 40 76 -3 2 -15 -14
-27 -36z"/>
<path d="M6648 8123 c7 -3 16 -2 19 1 4 3 -2 6 -13 5 -11 0 -14 -3 -6 -6z"/>
<path d="M6705 8120 c3 -5 8 -10 11 -10 2 0 4 5 4 10 0 6 -5 10 -11 10 -5 0
-7 -4 -4 -10z"/>
<path d="M5054 8036 c-3 -14 -10 -23 -15 -20 -5 3 -9 -2 -9 -10 0 -9 -3 -16
-7 -16 -5 0 -26 -28 -48 -61 -25 -38 -49 -62 -65 -66 -31 -8 -73 -34 -65 -41
3 -3 13 2 23 11 10 9 32 18 48 19 17 2 43 17 64 37 19 18 29 30 21 26 -9 -5
-12 -3 -9 6 3 8 14 13 24 11 14 -2 15 0 6 6 -8 5 -10 16 -6 27 7 18 8 18 15
-1 7 -17 8 -17 8 4 1 12 5 22 10 22 9 0 24 60 17 68 -3 2 -8 -7 -12 -22z"/>
<path d="M5006 7836 c-22 -7 -41 -17 -43 -23 -5 -14 17 -28 26 -17 23 33 152
47 258 28 95 -16 263 -70 275 -88 5 -7 8 -7 8 -1 0 21 -16 33 -48 38 -18 3
-38 10 -45 15 -7 6 -50 20 -97 33 -103 26 -275 35 -334 15z"/>
<path d="M4918 7833 c7 -3 16 -2 19 1 4 3 -2 6 -13 5 -11 0 -14 -3 -6 -6z"/>
<path d="M4810 7804 c-8 -8 -34 -26 -59 -39 -25 -13 -41 -24 -35 -25 25 -1
122 65 112 75 -3 3 -11 -2 -18 -11z"/>
<path d="M4919 7757 c-20 -5 -41 -18 -47 -28 -18 -29 3 -31 32 -4 15 14 34 25
42 25 7 0 14 5 14 10 0 6 -1 9 -2 9 -2 -1 -19 -6 -39 -12z"/>
<path d="M5556 7709 c23 -26 54 -31 54 -9 0 13 -9 19 -35 22 -32 4 -33 3 -19
-13z"/>
<path d="M4641 7696 c-12 -13 -30 -39 -39 -57 -12 -23 -35 -42 -78 -64 -85
-43 -99 -59 -145 -163 -24 -56 -7 -46 21 12 22 47 70 89 70 62 0 -10 15 -6 55
17 30 18 54 36 55 40 0 5 -4 5 -10 2 -5 -3 -10 -1 -10 4 0 14 27 14 35 1 9
-15 34 -12 51 5 9 8 12 15 7 15 -5 0 -14 -5 -21 -12 -9 -9 -15 -9 -24 0 -7 7
-20 12 -29 12 -14 0 -11 6 12 29 16 16 29 35 29 43 0 7 12 26 26 41 14 16 24
30 22 33 -3 2 -15 -7 -27 -20z"/>
<path d="M4813 7686 c-13 -7 -20 -16 -15 -20 4 -5 -13 -6 -38 -5 -34 3 -44 1
-42 -10 2 -8 -3 -11 -11 -8 -8 3 -20 1 -28 -4 -10 -6 -7 -9 14 -9 33 0 36 -17
5 -30 -21 -8 -21 -9 -3 -9 12 -1 28 12 40 29 11 17 26 28 33 25 18 -6 82 26
82 42 0 15 -7 15 -37 -1z"/>
<path d="M6018 7683 c-3 -10 -2 -36 1 -58 l5 -40 7 50 c6 48 -4 85 -13 48z"/>
<path d="M7043 7675 c0 -11 4 -12 14 -4 7 6 13 13 13 15 0 2 -6 4 -13 4 -8 0
-14 -7 -14 -15z"/>
<path d="M7060 7646 c0 -19 26 -40 35 -26 3 5 1 10 -4 10 -6 0 -11 7 -11 15 0
8 -4 15 -10 15 -5 0 -10 -6 -10 -14z"/>
<path d="M7540 7621 c0 -6 5 -11 11 -11 8 0 7 -6 -2 -17 -10 -12 -11 -15 -1
-9 11 7 59 -35 97 -86 33 -43 71 -85 88 -97 29 -21 18 -5 -85 117 -89 106
-108 124 -108 103z"/>
<path d="M6002 7490 c0 -14 2 -19 5 -12 2 6 2 18 0 25 -3 6 -5 1 -5 -13z"/>
<path d="M5992 7380 c0 -19 2 -27 5 -17 2 9 2 25 0 35 -3 9 -5 1 -5 -18z"/>
<path d="M3861 7373 c-10 -26 -10 -27 4 -9 8 11 15 23 15 28 0 15 -7 8 -19
-19z"/>
<path d="M7702 7374 c10 -10 20 -16 22 -13 3 3 -5 11 -17 18 -21 13 -21 12 -5
-5z"/>
<path d="M3885 7369 c-4 -6 -5 -12 -2 -15 2 -3 7 2 10 11 7 17 1 20 -8 4z"/>
<path d="M4230 7370 c0 -5 5 -10 10 -10 6 0 10 5 10 10 0 6 -4 10 -10 10 -5 0
-10 -4 -10 -10z"/>
<path d="M7753 7365 c0 -8 4 -12 9 -9 5 3 6 10 3 15 -9 13 -12 11 -12 -6z"/>
<path d="M4275 7330 c3 -5 13 -10 21 -10 8 0 12 5 9 10 -3 6 -13 10 -21 10 -8
0 -12 -4 -9 -10z"/>
<path d="M7760 7321 c0 -5 7 -12 16 -15 8 -3 13 -10 10 -14 -3 -5 1 -9 9 -9
20 0 19 9 -5 30 -23 19 -30 21 -30 8z"/>
<path d="M4410 7289 c0 -5 5 -7 10 -4 6 3 10 8 10 11 0 2 -4 4 -10 4 -5 0 -10
-5 -10 -11z"/>
<path d="M5981 7254 c0 -11 3 -14 6 -6 3 7 2 16 -1 19 -3 4 -6 -2 -5 -13z"/>
<path d="M7824 7245 c-8 -19 4 -37 18 -29 8 5 9 1 5 -10 -4 -10 -3 -15 3 -11
14 9 12 -9 -2 -24 -11 -10 -10 -12 2 -9 9 2 27 -23 51 -72 21 -41 36 -77 33
-81 -2 -4 3 -12 11 -19 8 -7 15 -9 15 -6 0 21 -54 166 -62 166 -5 0 -7 4 -4 9
3 4 -3 19 -14 32 -12 12 -23 33 -26 46 -7 26 -22 30 -30 8z"/>
<path d="M4414 7228 c-25 -39 -32 -58 -23 -64 14 -8 20 -1 22 27 0 13 6 27 11
31 6 4 8 10 4 13 -3 4 -10 0 -14 -7z"/>
<path d="M6151 7224 c0 -11 3 -14 6 -6 3 7 2 16 -1 19 -3 4 -6 -2 -5 -13z"/>
<path d="M4319 7209 c-11 -11 -18 -24 -14 -27 4 -4 12 1 19 11 7 9 25 17 40
17 16 0 25 4 21 10 -10 17 -44 11 -66 -11z"/>
<path d="M7570 7207 c0 -9 4 -17 9 -17 5 0 14 -12 19 -27 10 -26 10 -26 11 -5
1 13 -8 32 -19 44 -17 19 -20 19 -20 5z"/>
<path d="M6166 7175 c-3 -9 -5 -29 -5 -43 1 -20 3 -17 9 13 8 43 7 57 -4 30z"/>
<path d="M3657 7140 c-3 -11 -1 -23 4 -26 5 -3 9 6 9 20 0 31 -6 34 -13 6z"/>
<path d="M3884 7141 c3 -5 15 -7 26 -4 28 7 25 13 -6 13 -14 0 -23 -4 -20 -9z"/>
<path d="M4244 7135 c-3 -8 -4 -20 -2 -27 3 -7 7 -1 10 15 6 29 1 36 -8 12z"/>
<path d="M4338 7138 c6 -6 25 -11 42 -11 26 0 29 -3 24 -21 -7 -21 -6 -21 15
-2 21 19 30 43 11 31 -5 -3 -15 -3 -21 1 -7 4 -28 8 -47 10 -26 3 -32 0 -24
-8z"/>
<path d="M3750 7125 c0 -8 4 -15 10 -15 5 0 7 7 4 15 -4 8 -8 15 -10 15 -2 0
-4 -7 -4 -15z"/>
<path d="M4310 7132 c0 -18 27 -44 44 -41 17 4 23 19 9 19 -5 1 -18 8 -30 16
-13 8 -23 11 -23 6z"/>
<path d="M6189 7125 c-4 -61 7 -115 23 -115 6 0 7 19 3 53 -8 59 -23 96 -26
62z"/>
<path d="M7619 7126 c-8 -8 14 -96 23 -96 5 0 8 -6 8 -14 0 -7 7 -27 15 -42 8
-16 15 -37 15 -46 0 -10 5 -18 10 -18 6 0 10 3 10 8 -1 17 -41 126 -51 138 -6
8 -14 28 -18 45 -3 17 -9 28 -12 25z"/>
<path d="M5986 7107 c3 -10 9 -15 12 -12 3 3 0 11 -7 18 -10 9 -11 8 -5 -6z"/>
<path d="M3642 7090 c0 -14 2 -19 5 -12 2 6 2 18 0 25 -3 6 -5 1 -5 -13z"/>
<path d="M3680 7070 c0 -29 -4 -40 -15 -40 -11 0 -15 -11 -15 -40 0 -29 4 -40
15 -40 10 0 16 -11 17 -32 2 -53 -3 -92 -14 -106 -7 -8 -8 -55 -4 -135 3 -71
2 -147 -4 -182 -13 -74 -29 -223 -36 -330 -4 -64 -2 -76 7 -61 7 11 12 33 12
50 l0 31 10 -32 c5 -18 14 -33 18 -33 10 0 24 69 15 77 -3 4 -6 -7 -7 -23 0
-28 -1 -27 -15 11 -13 35 -13 41 1 51 8 6 15 16 15 22 0 6 6 13 13 15 9 4 9 8
1 14 -12 8 -9 46 16 226 16 110 12 490 -5 568 -10 42 -25 35 -25 -11z m30
-340 c0 -11 -4 -20 -10 -20 -5 0 -10 9 -10 20 0 11 5 20 10 20 6 0 10 -9 10
-20z"/>
<path d="M3581 7064 c0 -11 3 -14 6 -6 3 7 2 16 -1 19 -3 4 -6 -2 -5 -13z"/>
<path d="M3569 7028 c-3 -10 -8 -40 -14 -78 -6 -36 -5 -43 5 -33 12 11 25 113
15 113 -3 0 -5 -1 -6 -2z"/>
<path d="M4211 6974 c0 -11 3 -14 6 -6 3 7 2 16 -1 19 -3 4 -6 -2 -5 -13z"/>
<path d="M3614 6928 c0 -13 -2 -95 -3 -183 l-4 -160 -11 88 c-6 49 -14 85 -18
81 -12 -11 -10 -124 2 -124 6 0 10 -19 10 -43 0 -23 6 -52 14 -63 8 -11 18
-38 22 -60 l7 -39 9 34 c6 20 5 67 -1 120 -6 47 -11 150 -11 229 0 78 -4 142
-8 142 -4 0 -8 -10 -8 -22z"/>
<path d="M6216 6810 c4 -80 9 -208 10 -285 1 -77 7 -158 12 -180 6 -28 8 9 6
125 -4 194 -21 471 -30 479 -4 3 -3 -59 2 -139z"/>
<path d="M7960 6947 c0 -2 9 -21 20 -43 19 -36 20 -29 4 26 -4 16 -24 30 -24
17z"/>
<path d="M7701 6890 c0 -8 6 -24 14 -34 11 -15 15 -16 15 -5 0 8 -7 24 -15 35
-11 14 -14 15 -14 4z"/>
<path d="M3566 6873 c-13 -47 -17 -123 -7 -123 6 0 11 8 12 18 0 9 3 41 5 70
4 52 0 67 -10 35z"/>
<path d="M3655 6860 c3 -5 8 -10 11 -10 2 0 4 5 4 10 0 6 -5 10 -11 10 -5 0
-7 -4 -4 -10z"/>
<path d="M3528 6825 c-6 -30 -3 -43 8 -33 3 4 4 19 2 35 l-3 28 -7 -30z"/>
<path d="M7731 6804 c0 -11 3 -14 6 -6 3 7 2 16 -1 19 -3 4 -6 -2 -5 -13z"/>
<path d="M6120 6805 c0 -5 5 -17 10 -25 5 -8 10 -10 10 -5 0 6 -5 17 -10 25
-5 8 -10 11 -10 5z"/>
<path d="M8021 6750 c0 -8 6 -24 14 -34 11 -15 15 -16 15 -5 0 8 -7 24 -15 35
-11 14 -14 15 -14 4z"/>
<path d="M6140 6743 c0 -4 5 -15 10 -23 8 -13 10 -13 10 2 0 9 -4 20 -10 23
-5 3 -10 3 -10 -2z"/>
<path d="M6051 6720 c0 -14 4 -34 9 -45 8 -18 9 -18 9 5 0 14 -4 34 -9 45 -8
18 -9 18 -9 -5z"/>
<path d="M7761 6724 c0 -11 3 -14 6 -6 3 7 2 16 -1 19 -3 4 -6 -2 -5 -13z"/>
<path d="M3512 6700 c0 -19 2 -27 5 -17 2 9 2 25 0 35 -3 9 -5 1 -5 -18z"/>
<path d="M6161 6684 c0 -11 3 -14 6 -6 3 7 2 16 -1 19 -3 4 -6 -2 -5 -13z"/>
<path d="M4280 6662 c-77 -24 -80 -142 -4 -142 44 0 66 31 62 87 -3 47 -23 66
-58 55z m15 -72 c0 -7 -12 -14 -27 -16 -22 -2 -28 2 -28 17 0 16 6 19 28 16
15 -2 27 -10 27 -17z m27 -22 c-6 -6 -7 0 -4 19 5 21 7 23 10 9 2 -10 0 -22
-6 -28z"/>
<path d="M6181 6624 c0 -11 3 -14 6 -6 3 7 2 16 -1 19 -3 4 -6 -2 -5 -13z"/>
<path d="M6072 6610 c0 -14 2 -19 5 -12 2 6 2 18 0 25 -3 6 -5 1 -5 -13z"/>
<path d="M8070 6579 c0 -16 4 -28 9 -25 8 5 3 56 -5 56 -2 0 -4 -14 -4 -31z"/>
<path d="M6191 6580 c0 -14 4 -32 9 -40 8 -12 10 -12 9 5 0 11 -4 29 -9 40 -8
18 -9 18 -9 -5z"/>
<path d="M4062 6548 c-17 -65 -14 -92 4 -40 8 24 14 53 12 65 -2 15 -7 8 -16
-25z"/>
<path d="M7831 6570 c0 -8 4 -24 9 -35 5 -13 9 -14 9 -5 0 8 -4 24 -9 35 -5
13 -9 14 -9 5z"/>
<path d="M3492 6550 c0 -14 2 -19 5 -12 2 6 2 18 0 25 -3 6 -5 1 -5 -13z"/>
<path d="M7850 6491 c0 -10 7 -24 15 -31 13 -11 13 -8 4 19 -12 35 -19 40 -19
12z"/>
<path d="M5061 6457 c-7 -21 -10 -41 -7 -44 3 -4 6 1 6 10 0 10 5 17 10 17 6
0 10 -7 10 -15 0 -8 5 -15 10 -15 6 0 10 8 10 18 0 9 5 24 11 32 8 12 9 8 7
-14 -2 -16 2 -31 7 -33 6 -1 10 13 10 32 0 27 -4 35 -17 35 -10 0 -18 -4 -18
-10 0 -17 -18 -11 -22 8 -3 11 -8 4 -17 -21z"/>
<path d="M5187 6456 c-4 -10 -7 -25 -6 -34 0 -11 4 -9 10 7 5 13 8 29 6 35 -2
5 -6 2 -10 -8z"/>
<path d="M3468 6425 c-4 -39 8 -35 15 5 2 15 5 7 6 -20 2 -78 54 -291 67 -277
2 2 -5 37 -15 79 -10 42 -22 109 -26 149 -7 70 -17 99 -35 99 -4 0 -10 -16
-12 -35z"/>
<path d="M5157 6453 c-4 -3 -7 -11 -7 -17 0 -6 5 -5 12 2 6 6 9 14 7 17 -3 3
-9 2 -12 -2z"/>
<path d="M5230 6428 c0 -18 4 -28 8 -23 4 6 16 15 26 21 11 6 21 17 24 25 2 9
-1 8 -11 -3 -17 -22 -27 -23 -27 -3 0 8 -4 15 -10 15 -5 0 -10 -15 -10 -32z"/>
<path d="M5308 6454 c-5 -4 -8 -21 -7 -38 0 -30 0 -30 10 -7 11 27 8 57 -3 45z"/>
<path d="M5367 6453 c-4 -3 -7 -22 -6 -42 0 -28 2 -31 8 -16 8 19 8 19 21 -4
9 -19 14 -21 21 -10 5 8 8 25 8 39 0 23 -1 23 -9 5 -7 -19 -9 -18 -19 8 -11
29 -14 31 -24 20z"/>
<path d="M4031 6423 c0 -12 -4 -30 -7 -40 -5 -17 -5 -17 6 0 6 10 9 28 7 40
-4 22 -4 22 -6 0z"/>
<path d="M5442 6390 c0 -14 2 -19 5 -12 2 6 2 18 0 25 -3 6 -5 1 -5 -13z"/>
<path d="M3723 6350 c0 -25 2 -35 4 -22 2 12 2 32 0 45 -2 12 -4 2 -4 -23z"/>
<path d="M4153 6355 c0 -22 2 -30 4 -17 2 12 2 30 0 40 -3 9 -5 -1 -4 -23z"/>
<path d="M4010 6337 c0 -15 -4 -27 -10 -27 -12 0 -13 -77 -1 -84 10 -6 26 122
17 131 -3 4 -6 -6 -6 -20z"/>
<path d="M8142 6335 c0 -16 2 -22 5 -12 2 9 2 23 0 30 -3 6 -5 -1 -5 -18z"/>
<path d="M7921 6324 c0 -11 3 -14 6 -6 3 7 2 16 -1 19 -3 4 -6 -2 -5 -13z"/>
<path d="M4287 6313 c13 -2 24 -13 26 -26 4 -18 5 -17 6 6 1 23 -3 27 -26 26
-23 -1 -24 -2 -6 -6z"/>
<path d="M7949 6245 c18 -46 31 -66 31 -46 0 13 -38 91 -44 91 -2 0 4 -20 13
-45z"/>
<path d="M4102 6250 c0 -14 2 -19 5 -12 2 6 2 18 0 25 -3 6 -5 1 -5 -13z"/>
<path d="M6262 6255 c0 -11 3 -29 8 -40 11 -25 11 1 0 35 -6 20 -8 21 -8 5z"/>
<path d="M3700 6229 c0 -5 5 -7 10 -4 6 3 10 8 10 11 0 2 -4 4 -10 4 -5 0 -10
-5 -10 -11z"/>
<path d="M3992 6170 c0 -19 2 -27 5 -17 2 9 2 25 0 35 -3 9 -5 1 -5 -18z"/>
<path d="M7995 6158 c9 -45 47 -124 53 -108 3 7 0 16 -6 18 -7 2 -12 12 -12
21 0 10 -3 21 -7 25 -5 4 -14 22 -21 39 -10 27 -11 28 -7 5z"/>
<path d="M3572 6070 c0 -14 2 -19 5 -12 2 6 2 18 0 25 -3 6 -5 1 -5 -13z"/>
<path d="M3620 6059 c0 -5 5 -7 10 -4 6 3 10 8 10 11 0 2 -4 4 -10 4 -5 0 -10
-5 -10 -11z"/>
<path d="M3638 6042 c-21 -4 -24 -42 -4 -42 8 0 18 9 21 21 8 24 6 27 -17 21z"/>
<path d="M3596 6015 c8 -24 8 -35 2 -100 -3 -27 -3 -41 -1 -30 3 11 11 28 19
39 15 22 19 66 6 66 -5 0 -14 10 -21 23 -9 16 -10 17 -5 2z"/>
<path d="M8057 5992 c6 -4 14 -24 18 -45 10 -51 19 -39 10 12 -5 29 -12 41
-23 41 -11 0 -13 -3 -5 -8z"/>
<path d="M4051 5924 c0 -11 3 -14 6 -6 3 7 2 16 -1 19 -3 4 -6 -2 -5 -13z"/>
<path d="M3462 5855 c0 -16 2 -22 5 -12 2 9 2 23 0 30 -3 6 -5 -1 -5 -18z"/>
<path d="M8110 5863 c0 -5 7 -18 15 -29 13 -18 14 -18 8 4 -5 22 -23 41 -23
25z"/>
<path d="M8243 5785 c0 -22 2 -30 4 -17 2 12 2 30 0 40 -3 9 -5 -1 -4 -23z"/>
<path d="M3718 5804 c-4 -5 -10 -34 -14 -62 -4 -29 -11 -55 -15 -58 -5 -3 -9
-16 -9 -30 0 -14 -4 -22 -10 -19 -5 3 -10 23 -10 43 -1 63 -17 14 -24 -73 -4
-44 -11 -84 -17 -89 -11 -12 -12 -86 0 -86 4 0 11 25 14 56 10 98 26 88 37
-23 l8 -78 -2 104 c-1 57 0 98 2 91 7 -21 32 49 32 90 0 20 5 51 11 68 11 32
9 85 -3 66z"/>
<path d="M6340 5801 c0 -6 4 -13 10 -16 6 -3 7 1 4 9 -7 18 -14 21 -14 7z"/>
<path d="M3448 5780 c-4 -8 -9 -42 -12 -75 -3 -33 -10 -89 -16 -125 -6 -36
-15 -121 -20 -190 -36 -509 -53 -595 -155 -779 -19 -35 -40 -81 -45 -102 -13
-47 -40 -69 -138 -109 -42 -18 -122 -55 -176 -82 -101 -51 -123 -58 -301 -97
-55 -13 -118 -27 -140 -32 -22 -5 -62 -11 -90 -14 -27 -2 -70 -11 -95 -19
l-45 -16 47 5 c34 3 48 1 52 -10 6 -15 57 -21 70 -8 4 4 -8 13 -26 20 -29 12
-30 13 -6 10 15 -2 25 0 22 4 -3 5 0 9 5 9 6 0 11 -4 11 -8 0 -13 63 -1 82 16
11 9 28 13 46 9 16 -3 33 -2 38 2 5 4 34 13 64 20 84 18 133 32 153 42 10 5
22 7 27 4 12 -7 80 16 80 26 0 4 21 11 48 14 26 3 56 10 67 16 17 8 17 8 -4 3
-16 -4 -21 -3 -17 5 4 6 2 11 -5 11 -25 0 1 13 33 16 18 2 35 9 36 15 3 6 9 6
18 -2 11 -9 19 -8 34 6 11 10 17 21 15 25 -3 4 26 15 64 24 66 16 113 12 122
-11 4 -9 124 -112 178 -153 18 -14 39 -31 47 -38 28 -26 127 -64 200 -77 41
-7 77 -15 79 -16 1 -2 13 -55 25 -118 16 -80 21 -133 17 -180 -4 -58 -4 -63 8
-41 13 25 32 197 41 360 2 47 9 141 15 210 23 280 28 369 27 445 l-1 80 -8
-70 c-5 -38 -11 -117 -14 -175 -4 -58 -10 -120 -15 -138 -5 -18 -17 -121 -26
-228 -10 -107 -21 -194 -25 -194 -4 0 -5 10 -1 22 3 14 2 19 -6 14 -7 -4 -12
-1 -12 9 0 9 5 13 11 9 7 -4 10 -1 7 7 -3 8 -12 13 -22 11 -13 -2 -16 6 -16
43 0 49 5 55 26 28 13 -17 13 -17 14 0 0 10 -7 20 -15 23 -9 4 -15 19 -15 40
0 19 -4 34 -8 34 -35 0 -68 296 -76 674 -3 131 -7 241 -10 244 -3 3 -6 -4 -6
-16 0 -37 -18 -24 -25 17 -4 22 -13 45 -21 51 -13 12 -27 63 -28 110 -1 17 -7
25 -19 24 -9 -1 -17 4 -17 11 0 7 -7 15 -14 18 -20 8 -36 71 -44 170 -6 67
-10 81 -25 83 -10 1 -25 11 -33 21 -11 15 -14 15 -15 3 -1 -8 -5 5 -9 30 -3
26 -9 39 -12 30z m23 -147 c0 -5 2 -16 4 -25 2 -10 -3 -18 -10 -18 -18 0 -28
17 -21 35 6 16 25 21 27 8z m29 -99 c11 -12 10 -18 -3 -32 -11 -10 -17 -12
-17 -4 0 7 -7 12 -15 12 -17 0 -18 2 -9 24 8 20 28 20 44 0z m-140 -769 c0 -8
-4 -15 -10 -15 -5 0 -7 7 -4 15 4 8 8 15 10 15 2 0 4 -7 4 -15z m35 -245 c3
-5 1 -10 -4 -10 -6 0 -11 5 -11 10 0 6 2 10 4 10 3 0 8 -4 11 -10z m322 -42
c-3 -8 -6 -5 -6 6 -1 11 2 17 5 13 3 -3 4 -12 1 -19z m-185 -56 c-7 -2 -12
-11 -12 -20 0 -15 -2 -14 -17 1 -15 15 -16 19 -4 26 8 5 21 6 30 3 10 -4 11
-7 3 -10z m38 -16 c0 -3 -4 -8 -10 -11 -5 -3 -10 -1 -10 4 0 6 5 11 10 11 6 0
10 -2 10 -4z m10 -46 c0 -5 -4 -10 -9 -10 -6 0 -13 5 -16 10 -3 6 1 10 9 10 9
0 16 -4 16 -10z m149 -40 c4 0 7 -9 8 -20 2 -25 -8 -25 -30 0 -21 25 -22 34
-1 26 9 -3 19 -6 23 -6z m-12 -68 c-10 -2 -24 2 -32 8 -26 22 -16 29 18 12 25
-13 28 -17 14 -20z"/>
<path d="M8161 5745 c0 -26 47 -125 48 -103 1 9 -10 40 -24 70 -14 29 -25 44
-24 33z"/>
<path d="M6589 5703 c-3 -67 4 -158 11 -163 9 -5 26 -75 29 -115 1 -11 6 -83
11 -160 15 -220 17 -223 15 -20 -2 192 -17 351 -35 369 -6 6 -10 31 -10 57 0
51 -19 80 -21 32z"/>
<path d="M6360 5713 c0 -4 5 -15 10 -23 8 -13 10 -13 10 2 0 9 -4 20 -10 23
-5 3 -10 3 -10 -2z"/>
<path d="M8221 5596 c7 -15 15 -23 17 -16 3 7 -3 19 -13 28 -15 16 -16 15 -4
-12z"/>
<path d="M3593 5495 c0 -22 2 -30 4 -17 2 12 2 30 0 40 -3 9 -5 -1 -4 -23z"/>
<path d="M8260 5507 c0 -9 4 -18 9 -21 5 -4 8 1 7 9 -3 21 -16 31 -16 12z"/>
<path d="M6292 5478 c3 -7 13 -15 24 -17 16 -3 17 -1 5 13 -16 19 -34 21 -29
4z"/>
<path d="M6350 5410 c0 -5 7 -10 16 -10 8 0 12 5 9 10 -3 6 -10 10 -16 10 -5
0 -9 -4 -9 -10z"/>
<path d="M6400 5386 c0 -8 -6 -16 -12 -19 -24 -8 3 -21 60 -28 66 -7 77 -2 51
25 -17 17 -19 18 -19 3 0 -21 -14 -22 -30 -1 -22 25 -50 37 -50 20z"/>
<path d="M3992 5370 c0 -14 2 -19 5 -12 2 6 2 18 0 25 -3 6 -5 1 -5 -13z"/>
<path d="M3965 5190 c-4 -17 -5 -34 -2 -36 3 -3 8 9 12 26 4 17 5 34 2 36 -3
3 -8 -9 -12 -26z"/>
<path d="M4716 5138 c9 -71 14 -73 14 -5 0 33 -4 57 -10 57 -7 0 -8 -19 -4
-52z"/>
<path d="M6792 5055 c-1 -44 -5 -98 -8 -120 -5 -30 -4 -37 5 -29 8 7 11 46 8
120 -2 95 -3 99 -5 29z"/>
<path d="M3951 5066 c-13 -53 -15 -116 -2 -116 7 0 23 150 16 158 -1 1 -8 -17
-14 -42z"/>
<path d="M4744 4992 c6 -77 33 -176 35 -127 1 35 -26 195 -34 203 -4 4 -5 -30
-1 -76z"/>
<path d="M6724 4980 c4 -14 10 -49 15 -77 11 -76 20 -76 14 -1 -3 35 -12 72
-21 83 -14 19 -14 19 -8 -5z"/>
<path d="M8440 4910 c0 -11 5 -20 11 -20 5 0 8 -4 5 -9 -8 -12 3 -41 15 -41
11 0 -1 64 -13 68 -4 2 -6 8 -2 13 3 5 0 9 -5 9 -6 0 -11 -9 -11 -20z"/>
<path d="M4770 4818 c0 -14 7 -44 14 -69 8 -24 17 -80 20 -124 5 -92 19 -162
35 -178 17 -17 15 5 -20 223 -6 41 -14 95 -18 119 -6 48 -31 70 -31 29z"/>
<path d="M6773 4823 c-9 -21 -8 -57 1 -218 7 -110 13 -144 36 -200 5 -11 14
-36 20 -56 6 -20 19 -45 30 -57 11 -12 20 -27 20 -33 0 -7 9 -22 20 -34 19
-21 73 -138 109 -235 9 -25 37 -78 63 -118 26 -41 50 -90 54 -109 5 -25 16
-40 35 -52 16 -9 29 -21 29 -27 0 -7 8 -11 18 -10 13 1 18 -9 23 -44 l6 -45 3
40 c1 22 3 55 5 73 2 23 -2 32 -12 32 -23 0 -43 26 -42 57 0 15 3 22 6 16 2
-7 14 -13 25 -13 15 0 18 5 13 20 -4 11 -2 20 4 20 6 0 8 7 5 15 -4 8 -15 15
-25 15 -13 0 -19 7 -19 21 0 15 -5 19 -15 15 -22 -8 -45 4 -45 23 0 25 -45 62
-66 55 -16 -6 -15 -3 4 15 12 12 22 28 22 36 0 24 -12 45 -26 45 -8 0 -14 5
-14 11 0 6 -7 9 -15 5 -10 -4 -15 1 -15 15 0 15 -5 19 -15 16 -18 -8 -26 6
-29 45 -1 17 -10 36 -19 43 -9 7 -17 22 -17 33 0 11 -5 24 -10 27 -6 4 -22 24
-36 46 -13 22 -28 37 -33 35 -14 -9 -38 27 -46 69 -4 22 -10 45 -15 50 -11 15
-20 116 -21 253 0 67 -3 122 -5 122 -3 0 -8 -8 -11 -17z"/>
<path d="M8520 4637 c0 -15 29 -57 30 -42 0 6 -3 20 -6 33 -7 24 -24 31 -24 9z"/>
<path d="M3862 4555 c0 -16 2 -22 5 -12 2 9 2 23 0 30 -3 6 -5 -1 -5 -18z"/>
<path d="M8600 4451 c15 -30 30 -35 17 -6 -7 14 -16 25 -20 25 -4 0 -3 -9 3
-19z"/>
<path d="M4840 4405 c0 -8 5 -15 10 -15 6 0 10 -18 10 -40 0 -22 5 -40 10 -40
15 0 12 47 -5 80 -17 33 -25 38 -25 15z"/>
<path d="M6850 4379 c0 -5 5 -7 10 -4 6 3 10 8 10 11 0 2 -4 4 -10 4 -5 0 -10
-5 -10 -11z"/>
<path d="M3030 4310 c0 -6 7 -10 15 -10 8 0 15 2 15 4 0 2 -7 6 -15 10 -8 3
-15 1 -15 -4z"/>
<path d="M3841 4304 c0 -11 3 -14 6 -6 3 7 2 16 -1 19 -3 4 -6 -2 -5 -13z"/>
<path d="M4867 4224 c-3 -4 -2 -15 3 -24 5 -10 12 -61 16 -114 4 -53 10 -96
13 -96 3 0 7 -10 8 -22 4 -60 34 -266 42 -288 5 -14 12 -61 16 -105 3 -44 10
-105 15 -135 33 -199 44 -281 42 -327 -1 -29 3 -53 8 -53 6 0 10 -24 10 -54 0
-30 5 -67 11 -83 6 -15 11 -69 12 -120 1 -50 5 -84 8 -75 4 10 9 1 17 -27 6
-24 8 -50 5 -57 -3 -8 -1 -14 5 -14 10 0 27 -64 23 -87 -1 -6 8 -56 19 -109
24 -114 24 -128 8 -118 -8 5 -7 1 2 -10 10 -13 15 -52 17 -144 2 -86 7 -129
16 -134 13 -8 17 -37 18 -138 1 -36 3 -57 6 -47 10 38 21 13 32 -75 6 -51 13
-102 16 -113 8 -35 13 -87 19 -197 4 -60 13 -119 20 -134 8 -14 12 -33 9 -40
-8 -21 6 -64 20 -61 7 1 13 -11 15 -28 1 -16 7 -39 11 -50 30 -70 66 -225 58
-254 -4 -16 0 -21 14 -21 10 0 19 -7 19 -15 0 -8 -4 -15 -10 -15 -5 0 -10 5
-10 12 0 19 -13 0 -27 -40 -7 -20 -10 -52 -7 -70 4 -21 2 -32 -6 -32 -8 0 -10
-12 -5 -40 4 -26 3 -40 -4 -40 -6 0 -11 -7 -11 -15 0 -12 -16 -15 -80 -15
l-80 0 0 55 c0 49 -2 55 -21 55 -24 0 -58 -37 -59 -62 0 -10 -4 -18 -9 -18 -5
0 -12 36 -16 80 -6 69 -10 80 -26 80 -13 0 -16 5 -12 16 8 22 -17 64 -38 64
-11 0 -21 9 -24 23 -11 47 -21 146 -14 142 7 -5 19 18 19 36 0 5 -10 9 -21 9
-16 0 -20 5 -16 20 3 11 1 18 -3 15 -11 -7 -16 2 -25 43 -5 25 -3 32 9 32 12
0 16 10 16 40 0 33 -3 40 -20 40 -18 0 -20 7 -20 61 0 52 -3 62 -20 66 -15 4
-20 14 -20 39 0 18 5 36 10 39 6 3 10 13 10 21 0 8 -4 14 -10 14 -5 0 -10 -7
-10 -15 0 -18 -4 -18 -48 -6 -28 9 -32 7 -32 -10 0 -10 -4 -19 -10 -19 -5 0
-10 5 -10 10 0 6 -13 10 -30 10 -27 0 -30 -3 -30 -33 0 -18 5 -38 12 -45 9 -9
9 -12 0 -12 -7 0 -12 -9 -12 -20 0 -11 -7 -20 -15 -20 -11 0 -15 -11 -15 -41
0 -36 2 -40 23 -37 19 3 22 -2 25 -40 3 -39 1 -42 -23 -42 -23 0 -24 -2 -13
-20 10 -16 10 -24 0 -40 -10 -17 -10 -20 3 -20 8 0 15 -8 15 -17 1 -21 33 -63
49 -63 18 0 13 -15 -11 -37 -18 -15 -33 -19 -70 -15 l-48 4 0 67 c0 41 -4 61
-9 52 -7 -11 -9 -11 -14 0 -3 8 -6 3 -6 -11 l-1 -25 -25 27 c-14 15 -25 38
-25 52 0 13 -6 26 -12 28 -9 3 -15 34 -18 89 l-5 84 -35 5 c-32 5 -35 8 -38
43 -2 20 -7 37 -13 37 -5 0 -9 9 -9 20 0 11 -7 23 -15 26 -32 13 -16 34 25 34
l40 0 0 40 0 40 -40 0 -40 0 0 40 c0 23 -5 40 -11 40 -6 0 -20 11 -31 25 -11
14 -25 25 -32 25 -18 0 -29 75 -16 100 5 10 10 41 10 68 0 40 -4 51 -19 55
-10 2 -24 14 -30 26 -10 18 -9 21 8 21 15 0 20 8 22 44 3 36 0 47 -16 57 -11
7 -20 10 -21 8 -3 -11 -34 26 -34 40 0 14 2 14 10 1 7 -12 13 -12 27 -4 21 13
27 36 18 71 -4 19 -11 24 -28 21 -21 -4 -22 -2 -19 79 3 70 1 83 -12 83 -13 0
-16 14 -16 80 0 75 1 80 21 80 17 0 20 4 15 23 -3 12 -6 30 -6 40 0 12 -8 17
-29 17 -27 0 -29 3 -33 45 -2 31 2 50 12 61 13 14 13 17 -7 34 -13 10 -23 23
-23 29 0 13 -10 14 -30 1 -8 -5 -10 -10 -4 -10 19 0 22 -91 5 -127 -15 -31
-18 -32 -71 -29 -30 2 -38 1 -17 -1 53 -6 51 -33 -3 -33 l-40 0 0 -89 c0 -82
-2 -89 -25 -107 -19 -14 -25 -28 -25 -56 0 -21 5 -38 10 -38 6 0 10 -8 10 -18
0 -10 7 -27 15 -38 20 -26 20 -104 0 -104 -11 0 -15 -11 -15 -40 0 -36 -3 -40
-24 -40 -21 0 -25 -5 -28 -37 -3 -34 -6 -38 -33 -41 -16 -2 -36 -9 -44 -15
-11 -9 -15 -9 -18 1 -3 6 -18 12 -34 12 -27 0 -29 2 -29 40 0 36 3 40 25 40
14 0 25 5 25 10 0 6 7 10 15 10 8 0 15 -4 15 -10 0 -5 7 -10 15 -10 11 0 15
11 15 40 0 29 -4 40 -15 40 -12 0 -15 14 -15 65 0 58 -2 65 -20 65 -11 0 -20
-4 -20 -10 0 -5 -9 -10 -19 -10 -21 0 -29 25 -22 73 3 25 31 40 31 17 0 -5 11
-10 25 -10 22 0 25 4 25 39 0 44 -5 50 -49 55 -27 3 -31 0 -32 -23 -1 -19 -3
-15 -9 14 -9 46 -6 71 7 68 6 -1 6 13 -1 38 -8 31 -8 42 3 48 9 6 11 21 5 57
-7 45 -8 47 -14 19 -4 -16 -2 -35 2 -42 5 -6 5 -14 -1 -17 -5 -3 -12 -25 -16
-47 -5 -28 -13 -43 -25 -46 -15 -4 -27 -40 -59 -171 -35 -147 -54 -232 -56
-254 0 -3 -3 -10 -7 -14 -12 -11 -10 -26 2 -19 6 4 10 -8 10 -29 0 -20 -5 -36
-11 -36 -5 0 -8 4 -5 9 4 5 3 17 -1 27 -6 16 -7 16 -14 -2 -4 -10 -8 -32 -8
-48 -1 -23 2 -27 11 -18 7 7 15 12 19 12 11 0 4 -103 -8 -107 -7 -3 -8 -15 -3
-36 4 -18 13 -66 20 -107 6 -41 14 -86 17 -100 4 -14 6 -28 5 -32 -1 -5 3 -8
9 -8 6 0 8 9 4 23 -5 19 -4 20 5 5 8 -13 8 -24 -1 -39 -12 -23 -1 -121 27
-244 18 -80 18 -181 -2 -296 -17 -100 -16 -207 5 -439 29 -307 48 -407 105
-543 l16 -37 1025 0 c1018 0 1025 0 1025 20 0 11 -6 20 -14 20 -7 0 -19 7 -26
15 -9 10 -9 15 -1 15 6 0 11 9 11 20 0 11 7 20 15 20 18 0 20 40 3 40 -7 0
-28 20 -45 44 -38 50 -53 104 -32 116 20 13 -8 60 -36 60 -33 0 -45 21 -38 65
6 35 4 38 -14 33 -19 -5 -22 0 -28 51 -7 57 -23 90 -34 72 -4 -5 -11 1 -18 15
-9 20 -9 24 4 24 14 0 13 3 -2 20 -10 11 -18 35 -18 53 0 21 -8 41 -25 60 -21
22 -23 27 -9 27 13 0 17 9 17 40 0 28 -4 40 -14 40 -8 0 -17 -6 -20 -12 -3 -7
-3 -3 -1 9 8 29 -5 74 -18 66 -6 -4 -8 0 -4 10 3 8 9 32 13 51 5 29 3 36 -9
36 -9 0 -18 -8 -20 -17 -3 -10 -5 3 -6 29 0 26 -5 50 -11 53 -5 3 -10 25 -10
47 0 24 -9 55 -21 75 -12 19 -22 47 -24 62 -1 15 -4 32 -8 37 -7 12 -22 114
-19 130 1 6 -5 24 -13 40 -20 38 -20 65 0 58 8 -4 15 -2 15 3 0 19 -25 63 -36
63 -13 0 -24 22 -24 46 0 8 7 14 15 14 17 0 19 18 5 40 -8 13 -10 12 -10 -2 0
-10 -4 -18 -9 -18 -12 0 -21 36 -21 87 0 28 -5 45 -16 51 -13 7 -15 18 -10 46
6 30 11 36 31 36 14 0 25 5 25 11 0 5 -8 9 -17 8 -10 -1 -23 -1 -29 0 -15 1
-24 72 -12 88 7 8 3 20 -12 35 -17 18 -20 30 -15 60 6 31 4 38 -9 38 -16 0
-16 1 -20 133 -1 12 -4 24 -7 27 -11 10 -29 99 -29 147 0 26 -9 80 -20 118
-11 39 -20 87 -20 108 0 21 -4 46 -9 55 -9 17 -29 146 -35 233 -2 25 -9 61
-14 80 -6 19 -16 85 -22 148 -6 63 -15 122 -20 131 -5 10 -14 55 -19 101 -5
46 -14 107 -19 134 -5 28 -15 98 -23 158 -7 59 -16 107 -21 107 -4 0 -8 16 -8
36 0 20 -6 59 -14 87 -7 29 -19 88 -25 132 -23 152 -25 158 -44 139z m-1160
-1776 c-3 -8 -6 -5 -6 6 -1 11 2 17 5 13 3 -3 4 -12 1 -19z m42 -115 c1 -13
-3 -23 -9 -23 -5 0 -10 8 -10 18 0 9 -2 35 -5 57 l-5 40 14 -35 c8 -19 15 -45
15 -57z m328 35 c-3 -8 -6 -5 -6 6 -1 11 2 17 5 13 3 -3 4 -12 1 -19z m-277
-229 c0 -40 -39 -57 -57 -25 -16 28 -16 36 2 36 8 0 15 6 15 14 0 9 7 12 20 9
14 -4 20 -14 20 -34z m140 -165 c0 -17 23 -44 39 -44 5 0 12 10 14 23 4 15 5
12 4 -8 -2 -23 -7 -31 -24 -33 -27 -4 -77 42 -69 63 7 20 36 19 36 -1z m96
-79 c16 -25 9 -38 -15 -26 -13 7 -15 21 -11 68 4 49 5 52 8 19 2 -21 10 -49
18 -61z m-148 39 c19 -19 15 -24 -18 -24 -25 0 -30 4 -30 25 0 19 4 23 18 18
9 -4 23 -12 30 -19z m-34 -90 c3 -8 2 -12 -4 -9 -6 3 -10 10 -10 16 0 14 7 11
14 -7z m109 -181 c-58 -6 -60 -33 -3 -33 22 0 40 -4 40 -10 0 -15 -72 -12
-100 5 -14 8 -33 18 -42 21 -40 14 -13 24 65 22 45 -1 63 -3 40 -5z m394 -55
c-2 -13 -4 -3 -4 22 0 25 2 35 4 23 2 -13 2 -33 0 -45z m993 -33 c0 -8 -2 -15
-4 -15 -2 0 -6 7 -10 15 -3 8 -1 15 4 15 6 0 10 -7 10 -15z m-1590 -47 c0 -16
-3 -19 -11 -11 -6 6 -8 16 -5 22 11 17 16 13 16 -11z m-95 -8 c3 -5 2 -10 -4
-10 -5 0 -13 5 -16 10 -3 6 -2 10 4 10 5 0 13 -4 16 -10z m415 -210 c0 -5 -7
-10 -15 -10 -8 0 -15 5 -15 10 0 6 7 10 15 10 8 0 15 -4 15 -10z m-305 -30 c3
-5 1 -10 -4 -10 -6 0 -11 5 -11 10 0 6 2 10 4 10 3 0 8 -4 11 -10z m-63 -56
c2 -25 0 -48 -3 -50 -4 -2 -9 19 -11 46 -1 28 0 50 3 50 4 0 9 -21 11 -46z
m28 25 c0 -11 -4 -17 -10 -14 -5 3 -10 13 -10 21 0 8 5 14 10 14 6 0 10 -9 10
-21z m17 -81 c-3 -8 -6 -5 -6 6 -1 11 2 17 5 13 3 -3 4 -12 1 -19z m743 -48
c0 -5 -4 -10 -10 -10 -5 0 -10 5 -10 10 0 6 5 10 10 10 6 0 10 -4 10 -10z
m-740 -100 c0 -5 -2 -10 -4 -10 -3 0 -8 5 -11 10 -3 6 -1 10 4 10 6 0 11 -4
11 -10z m335 -60 c3 -5 1 -10 -4 -10 -6 0 -11 5 -11 10 0 6 2 10 4 10 3 0 8
-4 11 -10z m650 -20 c-3 -5 -10 -10 -16 -10 -5 0 -9 5 -9 10 0 6 7 10 16 10 8
0 12 -4 9 -10z m3 -103 c3 -46 3 -47 -27 -47 -29 0 -31 2 -31 40 0 29 4 40 15
40 8 0 15 5 15 11 0 6 6 9 13 7 6 -3 13 -25 15 -51z m692 -68 c0 -11 -4 -17
-10 -14 -5 3 -10 13 -10 21 0 8 5 14 10 14 6 0 10 -9 10 -21z m-780 -124 c10
-12 10 -15 -4 -15 -9 0 -16 7 -16 15 0 8 2 15 4 15 2 0 9 -7 16 -15z m786
-132 c0 -20 6 -39 12 -41 17 -5 15 -32 -3 -32 -8 0 -15 7 -15 15 0 9 -9 15
-25 15 -22 0 -25 4 -25 40 0 37 2 40 28 40 24 0 27 -4 28 -37z m-356 -35 c0
-5 -4 -8 -10 -8 -5 0 -10 10 -10 23 0 18 2 19 10 7 5 -8 10 -18 10 -22z m-270
-12 c0 -3 -4 -8 -10 -11 -5 -3 -10 -1 -10 4 0 6 5 11 10 11 6 0 10 -2 10 -4z
m-1085 -76 c3 -5 1 -10 -4 -10 -6 0 -11 5 -11 10 0 6 2 10 4 10 3 0 8 -4 11
-10z m85 -160 c0 -5 -4 -10 -10 -10 -5 0 -10 5 -10 10 0 6 5 10 10 10 6 0 10
-4 10 -10z m114 -201 c-8 -13 -24 -1 -24 18 0 13 3 13 15 3 8 -7 12 -16 9 -21z"/>
<path d="M8545 4199 c-22 -4 -60 -10 -85 -14 -25 -3 -63 -10 -85 -16 -22 -6
-62 -14 -88 -19 -26 -5 -85 -18 -130 -29 -45 -11 -118 -27 -162 -37 -78 -16
-160 -48 -171 -65 -7 -13 -3 -12 42 10 49 23 342 83 370 75 16 -4 20 -13 19
-42 -1 -39 12 -92 23 -92 4 0 5 24 4 54 -4 63 11 100 38 93 11 -3 40 6 66 20
26 14 63 26 83 28 47 3 130 25 137 36 6 10 -5 10 -61 -2z"/>
<path d="M2477 4148 c-6 -4 -10 -8 -7 -9 3 0 15 -2 27 -5 12 -2 32 0 45 5 20
7 19 9 -15 13 -20 2 -43 0 -50 -4z"/>
<path d="M2155 4130 c-7 -12 12 -12 40 0 18 8 17 9 -7 9 -15 1 -30 -3 -33 -9z"/>
<path d="M2010 4091 c-8 -5 -55 -17 -105 -27 -49 -10 -82 -20 -71 -22 28 -6
206 28 206 40 0 5 5 6 12 2 7 -4 8 -3 4 4 -8 14 -25 15 -46 3z"/>
<path d="M7750 4055 c-7 -9 -8 -15 -2 -15 5 0 12 7 16 15 3 8 4 15 2 15 -2 0
-9 -7 -16 -15z"/>
<path d="M1734 4023 c11 -3 26 -11 34 -19 20 -21 34 -17 20 6 -9 13 -23 20
-43 19 -20 -1 -24 -3 -11 -6z"/>
<path d="M7708 4023 c7 -3 16 -2 19 1 4 3 -2 6 -13 5 -11 0 -14 -3 -6 -6z"/>
<path d="M7618 4003 c12 -2 32 -2 45 0 12 2 2 4 -23 4 -25 0 -35 -2 -22 -4z"/>
<path d="M7751 3984 c-19 -8 -32 -17 -28 -20 3 -3 22 4 44 15 44 23 34 27 -16
5z"/>
<path d="M1485 3964 l-40 -14 39 5 c22 2 44 9 50 15 13 13 1 11 -49 -6z"/>
<path d="M7680 3939 c0 -5 5 -7 10 -4 6 3 10 8 10 11 0 2 -4 4 -10 4 -5 0 -10
-5 -10 -11z"/>
<path d="M4270 3930 c0 -5 6 -10 14 -10 8 0 18 5 21 10 3 6 -3 10 -14 10 -12
0 -21 -4 -21 -10z"/>
<path d="M8276 3921 c-4 -6 -2 -11 3 -11 6 0 12 -12 12 -27 2 -24 2 -24 6 -6
5 27 -11 61 -21 44z"/>
<path d="M7220 3901 c0 -10 26 -9 36 2 4 4 -2 7 -14 7 -12 0 -22 -4 -22 -9z"/>
<path d="M7604 3895 c-25 -19 -14 -19 22 0 16 8 22 15 13 15 -8 0 -24 -7 -35
-15z"/>
<path d="M7460 3835 c-15 -8 -19 -14 -10 -14 18 -1 46 16 40 23 -3 2 -16 -2
-30 -9z"/>
<path d="M7280 3792 c0 -12 3 -12 15 -2 8 7 15 13 15 15 0 1 -7 2 -15 2 -8 0
-15 -7 -15 -15z"/>
<path d="M7323 3780 c-44 -19 -59 -42 -23 -33 11 3 20 9 20 14 0 5 8 9 18 9 9
1 28 7 42 15 22 13 23 14 5 14 -11 1 -39 -8 -62 -19z"/>
<path d="M8302 3740 c0 -19 2 -27 5 -17 2 9 2 25 0 35 -3 9 -5 1 -5 -18z"/>
<path d="M3810 3740 c-12 -7 -12 -10 3 -16 21 -8 29 -3 19 13 -5 8 -13 9 -22
3z"/>
<path d="M7255 3740 c3 -5 8 -10 11 -10 2 0 4 5 4 10 0 6 -5 10 -11 10 -5 0
-7 -4 -4 -10z"/>
<path d="M224 3663 c-13 -14 -22 -28 -20 -31 5 -4 20 9 45 41 21 27 3 20 -25
-10z"/>
<path d="M7996 3615 c-12 -95 -12 -158 1 -162 13 -5 21 105 13 177 l-6 45 -8
-60z"/>
<path d="M574 3635 c-3 -8 -29 -29 -57 -47 -39 -25 -64 -33 -101 -34 -47 -2
-51 -4 -57 -31 -13 -63 -69 -138 -96 -128 -8 3 -10 -6 -6 -29 3 -18 0 -49 -5
-70 -10 -35 -10 -37 11 -30 46 13 60 33 106 139 l47 110 77 43 78 43 47 -22
c55 -26 92 -57 92 -76 0 -8 5 -11 11 -8 6 4 31 4 56 0 38 -6 43 -9 32 -20 -21
-20 -138 -62 -191 -69 -27 -3 -56 -14 -67 -25 -10 -10 -50 -34 -88 -52 l-68
-34 76 -5 c85 -6 113 -21 106 -57 -4 -21 -2 -21 37 10 23 17 43 34 46 37 11
11 129 88 198 129 40 24 71 49 69 55 -2 6 -23 14 -46 17 -24 3 -47 12 -51 19
-5 8 -30 16 -56 19 -26 4 -49 11 -51 18 -6 17 127 22 143 6 7 -7 17 -13 23
-13 6 0 11 -6 11 -12 0 -7 5 -5 11 5 9 15 4 24 -28 52 -31 28 -46 34 -84 35
-34 0 -51 -5 -64 -20 -10 -11 -25 -20 -34 -20 -14 0 -14 2 -1 10 11 8 8 9 -11
4 -35 -8 -89 20 -89 46 0 23 -18 27 -26 5z"/>
<path d="M3837 3630 c-4 -14 -6 -38 -6 -55 1 -24 3 -21 10 15 10 49 7 80 -4
40z"/>
<path d="M190 3609 c0 -5 5 -7 10 -4 6 3 10 8 10 11 0 2 -4 4 -10 4 -5 0 -10
-5 -10 -11z"/>
<path d="M1049 3552 c-22 -10 -73 -52 -68 -56 2 -2 26 12 54 30 46 31 52 42
14 26z"/>
<path d="M7270 3435 c0 -72 -9 -199 -20 -285 -11 -85 -22 -173 -25 -195 -5
-51 -7 -262 -3 -432 2 -73 0 -133 -4 -133 -5 0 -8 -5 -8 -11 0 -5 5 -7 10 -4
11 7 13 -18 4 -52 -4 -13 -10 -21 -14 -18 -9 5 -4 -49 16 -193 17 -123 17
-132 3 -112 -8 11 -9 9 -3 -10 16 -55 4 -212 -17 -219 -24 -7 -29 -26 -12 -39
15 -11 16 -16 4 -45 -24 -58 -41 -131 -43 -176 0 -35 4 -49 23 -66 28 -24 50
-80 42 -103 -6 -14 -4 -15 8 -5 36 29 67 -96 100 -402 10 -95 9 -122 -4 -190
-9 -43 -20 -81 -24 -84 -11 -8 -93 -174 -93 -188 0 -5 -11 -22 -25 -37 -25
-28 -32 -46 -16 -46 5 0 1 -16 -8 -35 -9 -19 -22 -32 -28 -30 -7 2 -13 0 -13
-5 0 -6 5 -10 11 -10 6 0 0 -15 -14 -33 -34 -45 -48 -124 -31 -167 8 -18 12
-35 9 -39 -5 -9 35 -44 42 -37 6 5 6 35 1 71 -3 17 2 19 27 17 34 -4 47 -19
41 -46 -3 -12 7 -29 27 -47 25 -23 41 -29 78 -29 l47 0 -4 68 c-2 37 -1 61 2
55 9 -21 24 -15 24 9 0 12 9 31 20 43 17 18 19 27 10 49 -12 33 -32 24 -28
-12 2 -19 -2 -27 -12 -27 -19 0 -26 55 -9 66 7 4 14 20 16 36 1 15 4 37 5 48
2 12 -2 19 -9 17 -7 -1 -13 5 -13 13 0 8 6 12 14 9 17 -7 23 10 34 96 10 83 7
171 -6 179 -13 8 -15 138 -2 146 6 3 10 11 10 16 0 6 -4 7 -10 4 -6 -3 -10 5
-10 19 0 13 -5 37 -10 52 -6 16 -7 31 -1 38 8 10 16 104 12 146 -1 12 -3 13
-10 1 -6 -9 -10 -4 -13 18 -3 17 -2 33 0 36 13 13 8 81 -7 91 -14 11 -14 18
-3 58 17 67 15 159 -8 251 -19 77 -38 232 -37 305 0 19 -5 78 -12 130 -8 52
-14 131 -16 175 -1 44 -5 87 -8 95 -10 21 -15 230 -6 236 4 2 7 61 8 131 0 71
5 131 11 137 15 15 12 36 -5 36 -8 0 -15 5 -15 10 0 6 5 10 10 10 6 0 10 10
10 23 0 18 -2 19 -10 7 -8 -13 -10 -12 -11 5 -2 35 3 280 6 285 5 8 20 310 19
373 -1 33 -7 64 -13 70 -8 8 -11 -24 -11 -118z m-23 -3062 c-3 -10 -5 -2 -5
17 0 19 2 27 5 18 2 -10 2 -26 0 -35z m73 -75 c0 -83 -3 -109 -11 -101 -11 11
-19 199 -10 209 16 16 21 -10 21 -108z m-99 -36 c-6 -2 -11 -11 -12 -20 -1
-10 -4 -7 -8 8 -10 32 -3 44 16 28 10 -8 11 -14 4 -16z m-63 -111 c-16 -6 -31
16 -24 36 7 16 9 16 21 -7 9 -16 10 -26 3 -29z m164 1 c-7 -2 -12 -10 -12 -17
0 -25 -18 -25 -22 -1 -4 17 -1 23 9 19 7 -3 13 0 13 7 0 6 5 8 12 4 9 -6 9 -9
0 -12z"/>
<path d="M7240 3531 c0 -25 6 -27 13 -6 4 8 2 17 -3 20 -6 4 -10 -3 -10 -14z"/>
<path d="M8312 3520 c0 -19 2 -27 5 -17 2 9 2 25 0 35 -3 9 -5 1 -5 -18z"/>
<path d="M1675 3530 c-3 -5 -13 -10 -22 -10 -8 0 -26 -9 -40 -20 -14 -11 -22
-20 -17 -20 5 0 2 -5 -6 -10 -13 -9 -13 -10 0 -10 8 1 42 18 75 40 44 29 54
40 38 40 -12 0 -25 -4 -28 -10z"/>
<path d="M3818 3485 c-2 -21 0 -35 7 -35 7 0 9 14 7 35 -2 19 -5 35 -7 35 -2
0 -5 -16 -7 -35z"/>
<path d="M117 3451 c-9 -16 -17 -40 -16 -53 0 -14 3 -17 6 -8 2 8 12 30 20 48
19 43 12 51 -10 13z"/>
<path d="M679 3463 c-13 -16 -12 -17 4 -4 9 7 17 15 17 17 0 8 -8 3 -21 -13z"/>
<path d="M4961 3444 c0 -11 3 -14 6 -6 3 7 2 16 -1 19 -3 4 -6 -2 -5 -13z"/>
<path d="M3807 3367 c-3 -8 -8 -45 -11 -83 -4 -38 -9 -89 -12 -114 -7 -53 4
-49 17 7 9 36 21 203 14 203 -1 0 -5 -6 -8 -13z"/>
<path d="M4160 3075 c0 -19 -5 -46 -12 -60 -8 -17 -8 -32 -1 -47 7 -16 7 -28
-1 -40 -15 -25 3 -52 38 -56 24 -3 26 -1 26 37 0 23 -4 41 -10 41 -6 0 -10 33
-10 80 0 64 -3 80 -15 80 -10 0 -15 -11 -15 -35z"/>
<path d="M3767 3030 c-4 -25 -11 -58 -14 -74 -5 -28 -4 -29 11 -13 13 12 16
31 14 74 l-3 58 -8 -45z"/>
<path d="M3752 2900 c0 -14 2 -19 5 -12 2 6 2 18 0 25 -3 6 -5 1 -5 -13z"/>
<path d="M8333 2865 c0 -22 2 -30 4 -17 2 12 2 30 0 40 -3 9 -5 -1 -4 -23z"/>
<path d="M3782 2840 c0 -14 2 -19 5 -12 2 6 2 18 0 25 -3 6 -5 1 -5 -13z"/>
<path d="M3736 2788 c-4 -15 -26 -206 -26 -226 0 -7 5 -10 11 -7 6 4 8 13 5
21 -3 8 -1 14 5 14 6 0 8 8 5 18 -3 9 -2 56 2 105 7 81 6 104 -2 75z"/>
<path d="M8321 2768 c0 -13 4 -32 9 -43 7 -15 9 -10 9 23 1 23 -3 42 -9 42 -5
0 -10 -10 -9 -22z"/>
<path d="M8329 2683 c-3 -105 -12 -199 -19 -201 -4 -2 -4 -20 0 -40 14 -62 5
-688 -9 -706 -7 -8 -10 -19 -7 -24 9 -14 10 -177 2 -191 -4 -6 -9 -44 -10 -84
-2 -39 -7 -80 -11 -90 -4 -10 -2 -23 5 -31 8 -11 9 -20 0 -35 -7 -15 -8 -27 0
-40 14 -27 13 -31 -9 -31 -29 0 -34 -16 -8 -27 19 -9 22 -16 18 -63 -2 -38 -6
-49 -13 -39 -7 10 -8 1 -4 -28 3 -23 2 -44 -3 -48 -6 -3 -13 -26 -17 -50 -3
-25 -11 -48 -17 -52 -5 -3 0 -14 14 -24 16 -12 20 -21 13 -26 -14 -10 -28 -76
-14 -68 6 3 10 -1 10 -9 0 -8 -8 -20 -17 -25 -12 -7 -14 -13 -8 -18 16 -11 16
-51 1 -56 -13 -5 -17 -113 -6 -147 3 -9 -3 -16 -17 -18 -23 -3 -30 -16 -14
-26 12 -8 20 -55 10 -62 -5 -3 -6 -30 -3 -59 7 -53 -6 -92 -26 -80 -12 7 1
-69 13 -81 8 -9 27 40 26 69 -1 19 16 145 51 377 10 65 35 316 65 630 8 91 18
185 20 210 12 103 16 747 6 935 -6 110 -11 217 -11 238 1 36 -9 55 -11 20z"/>
<path d="M3920 2251 c0 -14 -6 -21 -20 -21 -11 0 -20 -4 -20 -10 0 -5 5 -10
10 -10 6 0 10 -13 10 -30 0 -16 5 -30 10 -30 6 0 10 18 10 40 0 22 5 40 10 40
6 0 10 6 10 14 0 8 -4 18 -10 21 -5 3 -10 -3 -10 -14z"/>
<path d="M4691 2193 c-1 -35 -4 -43 -20 -43 -11 0 -23 -5 -26 -10 -11 -17 7
-150 19 -150 7 0 17 -5 24 -12 9 -9 8 -16 -4 -30 -15 -16 -15 -18 -1 -24 15
-5 15 -8 2 -21 -8 -8 -15 -25 -15 -38 0 -13 -2 -30 -6 -38 -3 -9 5 -18 25 -27
51 -21 70 -69 74 -193 1 -33 8 -53 20 -61 9 -7 17 -18 17 -25 0 -6 7 -11 15
-11 17 0 39 46 29 62 -3 5 3 12 15 15 26 7 31 63 6 63 -8 0 -15 8 -15 19 0 10
-7 34 -14 53 -15 35 -12 78 5 78 5 0 9 7 9 15 0 8 -6 15 -13 15 -12 0 -37 85
-37 128 0 13 -7 33 -15 46 -9 13 -15 36 -13 52 2 36 -17 74 -38 74 -10 0 -14
6 -10 15 3 8 0 14 -7 12 -7 -1 -14 15 -18 38 l-6 40 -2 -42z"/>
<path d="M7120 2128 c0 -19 2 -20 10 -8 13 19 13 30 0 30 -5 0 -10 -10 -10
-22z"/>
<path d="M7092 2010 c0 -14 2 -19 5 -12 2 6 2 18 0 25 -3 6 -5 1 -5 -13z"/>
<path d="M7062 1820 c-7 -30 -17 -80 -21 -110 -5 -30 -13 -71 -18 -90 -10 -43
-11 -295 0 -306 16 -16 21 12 29 168 5 90 13 199 19 243 6 44 9 96 8 115 -4
33 -5 33 -17 -20z"/>
<path d="M4620 1815 c0 -8 5 -15 10 -15 6 0 10 7 10 15 0 8 -4 15 -10 15 -5 0
-10 -7 -10 -15z"/>
<path d="M4580 1630 c0 -22 5 -40 10 -40 6 0 10 18 10 40 0 22 -4 40 -10 40
-5 0 -10 -18 -10 -40z"/>
<path d="M4483 1465 c0 -22 2 -30 4 -17 2 12 2 30 0 40 -3 9 -5 -1 -4 -23z"/>
<path d="M4640 1470 c0 -16 7 -20 30 -20 23 0 30 4 30 20 0 16 -7 20 -30 20
-23 0 -30 -4 -30 -20z"/>
<path d="M4610 1390 c0 -29 4 -40 15 -40 11 0 15 11 15 40 0 29 -4 40 -15 40
-11 0 -15 -11 -15 -40z"/>
<path d="M4673 1310 c0 -25 2 -35 4 -22 2 12 2 32 0 45 -2 12 -4 2 -4 -23z"/>
<path d="M7211 991 c-8 -5 -21 -7 -30 -4 -11 4 -9 -1 6 -16 29 -28 43 -27 43
4 0 28 0 28 -19 16z"/>
<path d="M5280 960 c0 -5 9 -10 21 -10 11 0 17 5 14 10 -3 6 -13 10 -21 10 -8
0 -14 -4 -14 -10z"/>
<path d="M7120 940 c0 -13 20 -13 40 0 12 8 9 10 -12 10 -16 0 -28 -4 -28 -10z"/>
<path d="M6924 885 c-4 -8 -12 -15 -20 -15 -7 0 -16 -11 -20 -24 -4 -18 -15
-26 -41 -31 -29 -5 -38 -13 -55 -52 -11 -26 -31 -58 -44 -72 -13 -14 -24 -31
-24 -38 0 -8 -14 -13 -40 -13 l-40 0 0 -85 0 -85 46 0 47 0 -7 65 -7 66 37
-16 c40 -16 58 -10 69 25 3 10 17 20 30 22 21 5 25 1 31 -28 3 -18 4 -39 1
-46 -3 -7 -6 1 -7 17 -1 29 -1 29 -15 11 -21 -27 -20 -116 0 -116 8 0 15 -4
15 -10 0 -5 18 -10 40 -10 29 0 40 -4 40 -15 0 -11 11 -15 40 -15 34 0 40 3
40 21 0 31 20 61 36 55 20 -8 37 39 24 65 -13 23 -4 41 45 89 19 19 35 37 35
41 0 4 12 21 28 37 15 16 32 37 39 45 7 8 16 17 22 18 6 2 13 22 17 45 l6 41
-32 -5 c-19 -3 -35 0 -40 7 -5 9 -19 7 -53 -9 -30 -14 -56 -20 -74 -16 -15 4
-41 9 -57 12 -16 3 -41 11 -57 19 -36 19 -48 19 -55 0z"/>
<path d="M5313 713 c-50 -6 -43 -33 7 -33 33 0 40 3 40 20 0 11 -3 19 -7 18
-5 0 -23 -3 -40 -5z"/>
<path d="M6545 700 c3 -5 8 -10 11 -10 2 0 4 5 4 10 0 6 -5 10 -11 10 -5 0 -7
-4 -4 -10z"/>
<path d="M6545 640 c-3 -5 -1 -10 4 -10 6 0 11 5 11 10 0 6 -2 10 -4 10 -3 0
-8 -4 -11 -10z"/>
<path d="M6338 623 c12 -2 32 -2 45 0 12 2 2 4 -23 4 -25 0 -35 -2 -22 -4z"/>
<path d="M7240 619 c0 -5 5 -7 10 -4 6 3 10 8 10 11 0 2 -4 4 -10 4 -5 0 -10
-5 -10 -11z"/>
<path d="M7211 564 c-14 -32 -12 -37 12 -19 14 10 16 18 10 30 -8 14 -11 12
-22 -11z"/>
<path d="M6311 393 c0 -50 3 -83 9 -83 11 0 12 43 0 115 -7 47 -7 45 -9 -32z"/>
<path d="M7010 350 c0 -36 -2 -40 -25 -40 -22 0 -25 -4 -25 -40 l0 -40 -40 0
c-33 0 -40 3 -40 20 0 17 -7 20 -40 20 -33 0 -40 -4 -40 -19 0 -16 -11 -20
-80 -26 l-80 -7 0 -74 0 -74 40 0 c33 0 40 -3 40 -20 0 -11 5 -20 10 -20 6 0
10 9 10 20 0 16 7 20 36 20 21 0 33 -4 29 -10 -3 -5 -1 -10 4 -10 6 0 11 5 11
10 0 6 11 10 23 10 29 0 87 28 87 41 0 5 -12 15 -27 21 -28 12 -28 12 15 16
42 3 42 3 42 43 l0 39 48 0 c46 0 47 1 59 37 13 44 9 55 -12 27 -14 -18 -14
-18 -15 9 0 17 5 27 15 27 10 0 15 10 15 30 0 27 -3 30 -30 30 -28 0 -30 -2
-30 -40z"/>
<path d="M7435 380 c3 -5 8 -10 11 -10 2 0 4 5 4 10 0 6 -5 10 -11 10 -5 0 -7
-4 -4 -10z"/>
<path d="M6532 258 c-18 -18 -15 -28 8 -28 13 0 20 7 20 20 0 23 -10 26 -28 8z"/>
<path d="M5938 233 c12 -2 32 -2 45 0 12 2 2 4 -23 4 -25 0 -35 -2 -22 -4z"/>
<path d="M6020 221 c0 -5 15 -22 33 -37 20 -17 27 -29 20 -31 -8 -3 -13 -21
-13 -44 0 -31 -4 -39 -18 -39 -9 0 -23 9 -30 20 -9 15 -23 20 -52 20 l-40 0 0
-45 0 -45 40 0 c22 0 40 -4 40 -10 0 -5 18 -10 40 -10 l40 0 0 41 c0 33 6 45
30 66 37 30 38 43 5 43 -22 0 -25 4 -25 40 0 39 -1 40 -35 40 -19 0 -35 -4
-35 -9z"/>
<path d="M6290 190 l0 -39 -67 -4 -68 -3 83 -2 82 -2 0 45 c0 33 -4 45 -15 45
-11 0 -15 -11 -15 -40z"/>
<path d="M6522 187 c-29 -31 -28 -37 8 -37 27 0 30 3 30 30 0 36 -9 38 -38 7z"/>
<path d="M6400 120 c0 -27 5 -50 10 -50 6 0 10 -16 10 -35 0 -28 4 -35 20 -35
16 0 20 7 20 35 0 19 5 35 10 35 6 0 10 23 10 50 l0 50 -40 0 -40 0 0 -50z"/>
<path d="M5874 145 c8 -8 22 -15 30 -15 9 0 16 7 16 15 0 10 -10 15 -31 15
-27 0 -29 -2 -15 -15z"/>
<path d="M7050 80 c0 -5 5 -10 10 -10 6 0 10 5 10 10 0 6 -4 10 -10 10 -5 0
-10 -4 -10 -10z"/>
<path d="M6510 35 c0 -34 1 -35 40 -35 39 0 40 1 40 35 0 34 -1 35 -40 35 -39
0 -40 -1 -40 -35z"/>
<path d="M6272 35 c-16 -35 -16 -35 18 -35 35 0 39 18 12 44 -18 15 -19 15
-30 -9z"/>
<path d="M7065 30 c-9 -15 4 -30 26 -30 22 0 24 11 7 28 -15 15 -25 15 -33 2z"/>
</g>
</svg>
